<?xml version="1.0" encoding="UTF-8"?>
<svg xmlns="http://www.w3.org/2000/svg" xmlns:xlink="http://www.w3.org/1999/xlink" width="108px" height="108px" viewBox="0 0 108 108" version="1.1">
<g id="surface1">
<path style=" stroke:none;fill-rule:nonzero;fill:rgb(97.647059%,44.313725%,44.313725%);fill-opacity:1;" d="M 82.289062 54 C 82.289062 73.570312 66.425781 89.4375 46.851562 89.4375 C 27.28125 89.4375 11.414062 73.570312 11.414062 54 C 11.414062 34.429688 27.28125 18.5625 46.851562 18.5625 C 66.425781 18.5625 82.289062 34.429688 82.289062 54 Z M 82.289062 54 "/>
<path style=" stroke:none;fill-rule:nonzero;fill:rgb(100%,53.333333%,53.333333%);fill-opacity:1;" d="M 78.753906 52.71875 C 78.753906 71.046875 63.894531 85.90625 45.566406 85.90625 C 27.238281 85.90625 12.378906 71.046875 12.378906 52.71875 C 12.378906 34.386719 27.238281 19.527344 45.566406 19.527344 C 63.894531 19.527344 78.753906 34.386719 78.753906 52.71875 Z M 78.753906 52.71875 "/>
<path style=" stroke:none;fill-rule:nonzero;fill:rgb(18.431373%,69.411765%,91.764706%);fill-opacity:1;" d="M 46.851562 90.28125 C 26.816406 90.28125 10.570312 74.039062 10.570312 54 C 10.570312 33.960938 26.816406 17.71875 46.851562 17.71875 C 66.890625 17.71875 83.132812 33.960938 83.132812 54 C 83.113281 74.027344 66.882812 90.257812 46.851562 90.28125 Z M 46.851562 19.40625 C 27.746094 19.40625 12.257812 34.894531 12.257812 54 C 12.257812 73.105469 27.746094 88.59375 46.851562 88.59375 C 65.960938 88.59375 81.445312 73.105469 81.445312 54 C 81.425781 34.902344 65.949219 19.425781 46.851562 19.40625 Z M 46.851562 19.40625 "/>
<path style=" stroke:none;fill-rule:nonzero;fill:rgb(100%,100%,100%);fill-opacity:1;" d="M 46.851562 81 C 31.941406 81 19.851562 68.910156 19.851562 54 C 19.851562 39.089844 31.941406 27 46.851562 27 C 61.765625 27 73.851562 39.089844 73.851562 54 C 73.835938 68.90625 61.757812 80.984375 46.851562 81 Z M 46.851562 81 "/>
<path style=" stroke:none;fill-rule:nonzero;fill:rgb(18.431373%,69.411765%,91.764706%);fill-opacity:1;" d="M 46.851562 81.84375 C 31.476562 81.84375 19.007812 69.378906 19.007812 54 C 19.007812 38.621094 31.476562 26.15625 46.851562 26.15625 C 62.230469 26.15625 74.695312 38.621094 74.695312 54 C 74.679688 69.371094 62.222656 81.828125 46.851562 81.84375 Z M 46.851562 27.84375 C 32.40625 27.84375 20.695312 39.554688 20.695312 54 C 20.695312 68.445312 32.40625 80.15625 46.851562 80.15625 C 61.300781 80.15625 73.007812 68.445312 73.007812 54 C 72.992188 39.5625 61.292969 27.859375 46.851562 27.84375 Z M 46.851562 27.84375 "/>
<path style=" stroke:none;fill-rule:nonzero;fill:rgb(100%,53.333333%,53.333333%);fill-opacity:1;" d="M 46.851562 72.5625 C 36.601562 72.5625 28.289062 64.25 28.289062 54 C 28.289062 43.75 36.601562 35.4375 46.851562 35.4375 C 57.105469 35.4375 65.414062 43.75 65.414062 54 C 65.414062 64.25 57.105469 72.5625 46.851562 72.5625 Z M 46.851562 72.5625 "/>
<path style=" stroke:none;fill-rule:nonzero;fill:rgb(18.431373%,69.411765%,91.764706%);fill-opacity:1;" d="M 46.851562 73.40625 C 36.136719 73.40625 27.445312 64.71875 27.445312 54 C 27.445312 43.28125 36.136719 34.59375 46.851562 34.59375 C 57.570312 34.59375 66.257812 43.28125 66.257812 54 C 66.25 64.714844 57.566406 73.394531 46.851562 73.40625 Z M 46.851562 36.28125 C 37.066406 36.28125 29.132812 44.214844 29.132812 54 C 29.132812 63.785156 37.066406 71.71875 46.851562 71.71875 C 56.640625 71.71875 64.570312 63.785156 64.570312 54 C 64.570312 44.214844 56.640625 36.28125 46.851562 36.28125 Z M 46.851562 36.28125 "/>
<path style=" stroke:none;fill-rule:nonzero;fill:rgb(100%,100%,100%);fill-opacity:1;" d="M 46.851562 64.125 C 41.261719 64.125 36.726562 59.59375 36.726562 54 C 36.726562 48.40625 41.261719 43.875 46.851562 43.875 C 52.445312 43.875 56.976562 48.40625 56.976562 54 C 56.976562 59.59375 52.445312 64.125 46.851562 64.125 Z M 46.851562 64.125 "/>
<path style=" stroke:none;fill-rule:nonzero;fill:rgb(18.431373%,69.411765%,91.764706%);fill-opacity:1;" d="M 46.851562 64.96875 C 40.796875 64.96875 35.882812 60.058594 35.882812 54 C 35.882812 47.941406 40.796875 43.03125 46.851562 43.03125 C 52.910156 43.03125 57.820312 47.941406 57.820312 54 C 57.820312 60.058594 52.910156 64.96875 46.851562 64.96875 Z M 46.851562 44.71875 C 41.726562 44.71875 37.570312 48.875 37.570312 54 C 37.570312 59.125 41.726562 63.28125 46.851562 63.28125 C 51.980469 63.28125 56.132812 59.125 56.132812 54 C 56.132812 48.875 51.980469 44.71875 46.851562 44.71875 Z M 46.851562 44.71875 "/>
<path style=" stroke:none;fill-rule:nonzero;fill:rgb(100%,53.333333%,53.333333%);fill-opacity:1;" d="M 48.539062 54 C 48.539062 54.933594 47.785156 55.6875 46.851562 55.6875 C 45.921875 55.6875 45.164062 54.933594 45.164062 54 C 45.164062 53.066406 45.921875 52.3125 46.851562 52.3125 C 47.785156 52.3125 48.539062 53.066406 48.539062 54 Z M 48.539062 54 "/>
<path style=" stroke:none;fill-rule:nonzero;fill:rgb(18.431373%,69.411765%,91.764706%);fill-opacity:1;" d="M 46.851562 56.53125 C 45.457031 56.53125 44.320312 55.398438 44.320312 54 C 44.320312 52.601562 45.457031 51.46875 46.851562 51.46875 C 48.25 51.46875 49.382812 52.601562 49.382812 54 C 49.382812 55.398438 48.25 56.53125 46.851562 56.53125 Z M 46.851562 53.15625 C 46.386719 53.15625 46.007812 53.535156 46.007812 54 C 46.007812 54.464844 46.386719 54.84375 46.851562 54.84375 C 47.320312 54.84375 47.695312 54.464844 47.695312 54 C 47.695312 53.535156 47.320312 53.15625 46.851562 53.15625 Z M 46.851562 53.15625 "/>
<path style=" stroke:none;fill-rule:nonzero;fill:rgb(42.745098%,81.568627%,98.823529%);fill-opacity:1;" d="M 95.742188 47.46875 L 86.207031 47.46875 C 86.058594 47.472656 85.910156 47.515625 85.785156 47.589844 L 79.347656 51.46875 L 58.460938 51.46875 L 59.332031 49.96875 C 59.515625 49.652344 59.480469 49.257812 59.242188 48.984375 C 59.003906 48.710938 58.617188 48.621094 58.28125 48.761719 L 47.375 53.21875 C 47.058594 53.347656 46.851562 53.65625 46.851562 54 C 46.851562 54.34375 47.058594 54.652344 47.375 54.78125 L 58.28125 59.234375 C 58.617188 59.375 59.003906 59.285156 59.242188 59.011719 C 59.480469 58.738281 59.515625 58.339844 59.332031 58.027344 L 58.460938 56.53125 L 79.347656 56.53125 L 85.769531 60.410156 C 85.898438 60.484375 86.042969 60.527344 86.191406 60.53125 L 95.726562 60.53125 C 96.066406 60.527344 96.375 60.324219 96.503906 60.007812 C 96.632812 59.695312 96.5625 59.332031 96.324219 59.09375 L 91.246094 54 L 96.335938 48.90625 C 96.574219 48.667969 96.644531 48.304688 96.515625 47.992188 C 96.386719 47.675781 96.082031 47.472656 95.742188 47.46875 Z M 95.742188 47.46875 "/>
<path style=" stroke:none;fill-rule:nonzero;fill:rgb(64.313725%,92.54902%,100%);fill-opacity:1;" d="M 95.742188 47.46875 L 86.207031 47.46875 C 86.058594 47.472656 85.910156 47.515625 85.785156 47.589844 L 79.347656 51.46875 L 58.460938 51.46875 L 59.332031 49.96875 C 59.515625 49.652344 59.480469 49.257812 59.242188 48.984375 C 59.003906 48.710938 58.617188 48.621094 58.28125 48.761719 L 47.375 53.21875 C 46.675781 53.507812 48.535156 52.871094 49.238281 53.15625 L 54.898438 55.515625 C 55.234375 55.652344 55.621094 55.5625 55.859375 55.289062 C 56.097656 55.015625 56.132812 54.621094 55.949219 54.308594 L 79.351562 54.148438 L 85.777344 58.023438 C 85.902344 58.101562 86.046875 58.144531 86.199219 58.148438 L 94.132812 58.148438 C 94.472656 58.144531 94.777344 57.941406 94.910156 57.625 C 95.039062 57.3125 94.96875 56.949219 94.726562 56.707031 L 91.246094 54 L 96.335938 48.90625 C 96.574219 48.667969 96.644531 48.304688 96.515625 47.992188 C 96.386719 47.675781 96.082031 47.472656 95.742188 47.46875 Z M 95.742188 47.46875 "/>
<path style=" stroke:none;fill-rule:nonzero;fill:rgb(18.431373%,69.411765%,91.764706%);fill-opacity:1;" d="M 95.742188 61.375 L 86.207031 61.375 C 85.898438 61.375 85.597656 61.289062 85.332031 61.128906 L 79.113281 57.375 L 59.90625 57.375 L 60.042969 57.605469 C 60.410156 58.234375 60.332031 59.023438 59.855469 59.570312 C 59.375 60.117188 58.601562 60.296875 57.933594 60.015625 L 47.054688 55.5625 C 46.421875 55.300781 46.003906 54.683594 46.003906 53.996094 C 46.003906 53.3125 46.421875 52.695312 47.054688 52.433594 L 57.960938 47.980469 C 58.632812 47.699219 59.40625 47.878906 59.882812 48.425781 C 60.363281 48.96875 60.4375 49.761719 60.070312 50.390625 L 59.90625 50.625 L 79.09375 50.625 L 85.320312 46.871094 C 85.582031 46.710938 85.886719 46.625 86.191406 46.625 L 95.726562 46.625 C 96.410156 46.625 97.027344 47.035156 97.289062 47.667969 C 97.550781 48.296875 97.40625 49.023438 96.921875 49.507812 L 92.441406 54 L 96.933594 58.492188 C 97.417969 58.976562 97.5625 59.703125 97.300781 60.332031 C 97.039062 60.964844 96.421875 61.375 95.742188 61.375 Z M 58.460938 55.6875 L 79.347656 55.6875 C 79.496094 55.691406 79.640625 55.734375 79.769531 55.808594 L 86.191406 59.6875 L 95.726562 59.6875 L 90.640625 54.59375 C 90.480469 54.4375 90.390625 54.222656 90.390625 53.996094 C 90.390625 53.773438 90.480469 53.558594 90.640625 53.402344 L 95.726562 48.308594 L 86.191406 48.308594 L 79.769531 52.1875 C 79.640625 52.261719 79.496094 52.304688 79.347656 52.308594 L 58.460938 52.308594 C 58.15625 52.308594 57.878906 52.148438 57.730469 51.886719 C 57.578125 51.625 57.578125 51.304688 57.730469 51.042969 L 58.601562 49.539062 L 47.695312 54 L 58.601562 58.453125 L 57.730469 56.953125 C 57.578125 56.691406 57.578125 56.371094 57.730469 56.109375 C 57.878906 55.847656 58.15625 55.6875 58.460938 55.6875 Z M 58.460938 55.6875 "/>
<path style=" stroke:none;fill-rule:nonzero;fill:rgb(83.137255%,100%,83.137255%);fill-opacity:1;" d="M 82.476562 79.3125 C 82.476562 80.476562 81.53125 81.421875 80.367188 81.421875 C 79.203125 81.421875 78.257812 80.476562 78.257812 79.3125 C 78.257812 78.148438 79.203125 77.203125 80.367188 77.203125 C 81.53125 77.203125 82.476562 78.148438 82.476562 79.3125 Z M 82.476562 79.3125 "/>
<path style=" stroke:none;fill-rule:nonzero;fill:rgb(83.137255%,100%,83.137255%);fill-opacity:1;" d="M 73.617188 16.03125 C 73.617188 16.964844 72.863281 17.71875 71.929688 17.71875 C 70.996094 17.71875 70.242188 16.964844 70.242188 16.03125 C 70.242188 15.097656 70.996094 14.34375 71.929688 14.34375 C 72.863281 14.34375 73.617188 15.097656 73.617188 16.03125 Z M 73.617188 16.03125 "/>
<path style=" stroke:none;fill-rule:nonzero;fill:rgb(83.137255%,100%,83.137255%);fill-opacity:1;" d="M 95.554688 88.171875 C 95.554688 88.871094 94.988281 89.4375 94.289062 89.4375 C 93.589844 89.4375 93.023438 88.871094 93.023438 88.171875 C 93.023438 87.472656 93.589844 86.90625 94.289062 86.90625 C 94.988281 86.90625 95.554688 87.472656 95.554688 88.171875 Z M 95.554688 88.171875 "/>
<path style=" stroke:none;fill-rule:nonzero;fill:rgb(83.137255%,100%,83.137255%);fill-opacity:1;" d="M 9.492188 37.125 C 9.492188 37.589844 9.113281 37.96875 8.648438 37.96875 C 8.183594 37.96875 7.804688 37.589844 7.804688 37.125 C 7.804688 36.660156 8.183594 36.28125 8.648438 36.28125 C 9.113281 36.28125 9.492188 36.660156 9.492188 37.125 Z M 9.492188 37.125 "/>
<path style=" stroke:none;fill-rule:nonzero;fill:rgb(83.137255%,100%,83.137255%);fill-opacity:1;" d="M 84.164062 19.40625 C 84.164062 19.640625 83.976562 19.828125 83.742188 19.828125 C 83.507812 19.828125 83.320312 19.640625 83.320312 19.40625 C 83.320312 19.171875 83.507812 18.984375 83.742188 18.984375 C 83.976562 18.984375 84.164062 19.171875 84.164062 19.40625 Z M 84.164062 19.40625 "/>
<path style=" stroke:none;fill-rule:nonzero;fill:rgb(100%,74.117647%,74.117647%);fill-opacity:1;" d="M 55.476562 4.640625 C 55.476562 5.804688 54.53125 6.75 53.367188 6.75 C 52.203125 6.75 51.257812 5.804688 51.257812 4.640625 C 51.257812 3.476562 52.203125 2.53125 53.367188 2.53125 C 54.53125 2.53125 55.476562 3.476562 55.476562 4.640625 Z M 55.476562 4.640625 "/>
<path style=" stroke:none;fill-rule:nonzero;fill:rgb(100%,74.117647%,74.117647%);fill-opacity:1;" d="M 4.429688 52.3125 C 4.429688 53.246094 3.675781 54 2.742188 54 C 1.808594 54 1.054688 53.246094 1.054688 52.3125 C 1.054688 51.378906 1.808594 50.625 2.742188 50.625 C 3.675781 50.625 4.429688 51.378906 4.429688 52.3125 Z M 4.429688 52.3125 "/>
<path style=" stroke:none;fill-rule:nonzero;fill:rgb(100%,74.117647%,74.117647%);fill-opacity:1;" d="M 100.195312 42.1875 C 100.195312 42.886719 99.628906 43.453125 98.929688 43.453125 C 98.230469 43.453125 97.664062 42.886719 97.664062 42.1875 C 97.664062 41.488281 98.230469 40.921875 98.929688 40.921875 C 99.628906 40.921875 100.195312 41.488281 100.195312 42.1875 Z M 100.195312 42.1875 "/>
<path style=" stroke:none;fill-rule:nonzero;fill:rgb(100%,74.117647%,74.117647%);fill-opacity:1;" d="M 23.414062 90.28125 C 23.414062 90.746094 23.035156 91.125 22.570312 91.125 C 22.105469 91.125 21.726562 90.746094 21.726562 90.28125 C 21.726562 89.816406 22.105469 89.4375 22.570312 89.4375 C 23.035156 89.4375 23.414062 89.816406 23.414062 90.28125 Z M 23.414062 90.28125 "/>
<path style=" stroke:none;fill-rule:nonzero;fill:rgb(100%,74.117647%,74.117647%);fill-opacity:1;" d="M 98.507812 29.109375 C 98.507812 29.34375 98.320312 29.53125 98.085938 29.53125 C 97.851562 29.53125 97.664062 29.34375 97.664062 29.109375 C 97.664062 28.875 97.851562 28.6875 98.085938 28.6875 C 98.320312 28.6875 98.507812 28.875 98.507812 29.109375 Z M 98.507812 29.109375 "/>
<path style=" stroke:none;fill-rule:nonzero;fill:rgb(73.333333%,94.509804%,100%);fill-opacity:1;" d="M 106.945312 54.84375 C 106.945312 56.007812 106 56.953125 104.835938 56.953125 C 103.671875 56.953125 102.726562 56.007812 102.726562 54.84375 C 102.726562 53.679688 103.671875 52.734375 104.835938 52.734375 C 106 52.734375 106.945312 53.679688 106.945312 54.84375 Z M 106.945312 54.84375 "/>
<path style=" stroke:none;fill-rule:nonzero;fill:rgb(73.333333%,94.509804%,100%);fill-opacity:1;" d="M 26.789062 14.34375 C 26.789062 15.277344 26.035156 16.03125 25.101562 16.03125 C 24.167969 16.03125 23.414062 15.277344 23.414062 14.34375 C 23.414062 13.410156 24.167969 12.65625 25.101562 12.65625 C 26.035156 12.65625 26.789062 13.410156 26.789062 14.34375 Z M 26.789062 14.34375 "/>
<path style=" stroke:none;fill-rule:nonzero;fill:rgb(73.333333%,94.509804%,100%);fill-opacity:1;" d="M 12.445312 77.625 C 12.445312 78.324219 11.878906 78.890625 11.179688 78.890625 C 10.480469 78.890625 9.914062 78.324219 9.914062 77.625 C 9.914062 76.925781 10.480469 76.359375 11.179688 76.359375 C 11.878906 76.359375 12.445312 76.925781 12.445312 77.625 Z M 12.445312 77.625 "/>
<path style=" stroke:none;fill-rule:nonzero;fill:rgb(73.333333%,94.509804%,100%);fill-opacity:1;" d="M 71.507812 93.234375 C 71.507812 93.699219 71.128906 94.078125 70.664062 94.078125 C 70.199219 94.078125 69.820312 93.699219 69.820312 93.234375 C 69.820312 92.769531 70.199219 92.390625 70.664062 92.390625 C 71.128906 92.390625 71.507812 92.769531 71.507812 93.234375 Z M 71.507812 93.234375 "/>
<path style=" stroke:none;fill-rule:nonzero;fill:rgb(73.333333%,94.509804%,100%);fill-opacity:1;" d="M 88.382812 35.015625 C 88.382812 35.25 88.195312 35.4375 87.960938 35.4375 C 87.726562 35.4375 87.539062 35.25 87.539062 35.015625 C 87.539062 34.78125 87.726562 34.59375 87.960938 34.59375 C 88.195312 34.59375 88.382812 34.78125 88.382812 35.015625 Z M 88.382812 35.015625 "/>
<path style=" stroke:none;fill-rule:nonzero;fill:rgb(100%,95.686275%,77.254902%);fill-opacity:1;" d="M 60.539062 103.359375 C 60.539062 104.523438 59.59375 105.46875 58.429688 105.46875 C 57.265625 105.46875 56.320312 104.523438 56.320312 103.359375 C 56.320312 102.195312 57.265625 101.25 58.429688 101.25 C 59.59375 101.25 60.539062 102.195312 60.539062 103.359375 Z M 60.539062 103.359375 "/>
<path style=" stroke:none;fill-rule:nonzero;fill:rgb(100%,95.686275%,77.254902%);fill-opacity:1;" d="M 38.179688 99.140625 C 38.179688 100.074219 37.425781 100.828125 36.492188 100.828125 C 35.558594 100.828125 34.804688 100.074219 34.804688 99.140625 C 34.804688 98.207031 35.558594 97.453125 36.492188 97.453125 C 37.425781 97.453125 38.179688 98.207031 38.179688 99.140625 Z M 38.179688 99.140625 "/>
<path style=" stroke:none;fill-rule:nonzero;fill:rgb(100%,95.686275%,77.254902%);fill-opacity:1;" d="M 83.742188 29.109375 C 83.742188 29.808594 83.175781 30.375 82.476562 30.375 C 81.777344 30.375 81.210938 29.808594 81.210938 29.109375 C 81.210938 28.410156 81.777344 27.84375 82.476562 27.84375 C 83.175781 27.84375 83.742188 28.410156 83.742188 29.109375 Z M 83.742188 29.109375 "/>
<path style=" stroke:none;fill-rule:nonzero;fill:rgb(100%,95.686275%,77.254902%);fill-opacity:1;" d="M 41.554688 7.59375 C 41.554688 8.058594 41.175781 8.4375 40.710938 8.4375 C 40.246094 8.4375 39.867188 8.058594 39.867188 7.59375 C 39.867188 7.128906 40.246094 6.75 40.710938 6.75 C 41.175781 6.75 41.554688 7.128906 41.554688 7.59375 Z M 41.554688 7.59375 "/>
<path style=" stroke:none;fill-rule:nonzero;fill:rgb(100%,95.686275%,77.254902%);fill-opacity:1;" d="M 10.757812 21.9375 C 10.757812 22.171875 10.570312 22.359375 10.335938 22.359375 C 10.101562 22.359375 9.914062 22.171875 9.914062 21.9375 C 9.914062 21.703125 10.101562 21.515625 10.335938 21.515625 C 10.570312 21.515625 10.757812 21.703125 10.757812 21.9375 Z M 10.757812 21.9375 "/>
</g>
</svg>
